<svg id="图层_1" data-name="图层 1" xmlns="http://www.w3.org/2000/svg" viewBox="0 0 970.47 886.44"><defs><style>.cls-1{fill:#0489fc;}</style></defs><path class="cls-1" d="M209.6,844.25a3.63,3.63,0,0,0,2.66,1.72c9.45,2.55,18.89,5.14,28.36,7.6,14.54,3.78,29.08,7.55,43.65,11.18,10.16,2.53,20.4,4.69,30.56,7.24,10.33,2.6,20.6,5.49,30.9,8.22,12.15,3.23,24.31,6.42,36.46,9.65a16.39,16.39,0,0,1,3.46,1.23,7.44,7.44,0,0,0,7,0c4.49-2.08,9-4,13.53-6.06,8.86-4,17.7-8,26.56-12q19.08-8.6,38.18-17.15c4-1.8,8.14-3.36,12.14-5.24,16.17-7.62,32.62-14.4,48.91-21.66,11-4.88,21.82-10.08,32.74-15.09,9-4.12,18-8.13,27-12.25,14.94-6.86,29.83-13.84,44.8-20.63,14.16-6.42,28.41-12.61,42.58-19,16.27-7.33,32.46-14.88,48.75-22.13,20.65-9.18,41.39-18.12,62.06-27.23,8.73-3.84,17.39-7.86,26.09-11.75,3.87-1.72,7.78-3.31,11.66-5,10-4.39,20-8.84,30-13.22,4.21-1.83,8.49-3.44,12.68-5.29,7.27-3.2,14.48-6.56,21.74-9.75q29.58-13,59.19-25.87c12.13-5.3,24.34-10.39,36.33-16.05,8.17-3.86,16.58-6.92,24.77-10.67,1.76-.81,3.44-1.86,5.18-2.74,3.58-1.8,6.92-1,8.82,2.17a10.16,10.16,0,0,1-.89,10.84,14.81,14.81,0,0,1-3.82,3c-5.33,3.32-11.13,5.44-16.68,8.2-4,2-8,3.74-12,5.74-16.47,8.3-33.06,16.29-49.68,24.2-9.27,4.4-18.57,8.73-27.66,13.61-8,4.27-16.22,8-24.36,11.84-16.44,7.86-32.92,15.64-49.35,23.55-11.64,5.6-23.22,11.39-34.85,17-7.81,3.78-15.67,7.42-23.5,11.16-13.4,6.42-26.78,12.92-40.21,19.29-12,5.68-24,11.19-36,16.87-6.88,3.25-13.66,6.75-20.52,10.07-10.35,5-20.74,9.95-31.11,14.92-17.72,8.49-35.42,17-53.15,25.45-11.35,5.4-22.75,10.63-34.11,16-6.88,3.24-13.73,6.57-20.6,9.87-2.23,1.07-4.42,2.29-6.7,3.2-10.31,4.12-20.07,9.73-30.18,14.38-14,6.41-27.8,13.23-41.72,19.78-20.81,9.79-41.68,19.43-62.47,29.27C395.38,928.13,384,934,372.51,939.48c-16.44,7.87-32.95,15.55-49.41,23.38-11.5,5.47-23,11.07-34.43,16.62-1,.46-1.91.92-2.86,1.4C275,986.42,264,977,262,966.67c-1.43-7.61,1.41-14.86,7.56-18.94a31.62,31.62,0,0,1,4.69-2.52c19.19-8.56,38.39-17.07,57.57-25.67,2.57-1.15,5-2.68,7.47-4.08a1.28,1.28,0,0,0,.46-1,1.15,1.15,0,0,0-.58-.85c-3.16-1-6.31-2.14-9.5-3q-13.15-3.65-26.33-7.12c-14.35-3.78-28.74-7.38-43.07-11.28-11.64-3.17-23.19-6.72-34.8-10-9.43-2.65-18.9-5.08-28.35-7.65q-15.93-4.33-31.85-8.72c-5.58-3.24-10.82-1.94-16.4.63-7.69,3.54-15.78,6-23.75,8.68-8.47,2.89-16.77,6.37-25.18,9.49-8.23,3.06-16.5,6-24.77,9a10.54,10.54,0,0,1-11.67-2.84c-5.13-5.27-8-12.61-4.35-21.11a12.45,12.45,0,0,1,5.67-6.56,31.62,31.62,0,0,1,4.36-1.9c8.64-2.94,17.3-5.79,25.93-8.73,3-1,5.9-2.31,8.88-3.36,8.95-3.14,17.91-6.21,26.86-9.32q11.69-4.07,23.34-8.18L185,820.83c13.24-4.67,26.48-9.37,39.74-14,10.6-3.7,21.24-7.28,31.85-11,3-1,5.91-2.24,8.85-3.43a1.15,1.15,0,0,0,.8-1.26,1.28,1.28,0,0,0-1-1.19q-8.13-2.07-16.27-4.05c-7.46-1.82-14.95-3.5-22.39-5.46-9.16-2.42-17-7.86-24.1-14.53-14.73-13.79-25-31.16-32.11-51.05a193.22,193.22,0,0,1-9.58-41.82A584.35,584.35,0,0,1,157.32,575c.67-15,1.44-30,2.45-45,.93-13.61,2.14-27.19,3.43-40.77,1.19-12.6,2.42-25.21,4-37.75,2.84-22,5.92-43.95,9.91-65.74,1.74-9.55,3.15-19.17,4.89-28.72,2.79-15.29,5.47-30.6,8.67-45.78,3.61-17.07,7.48-34.08,11.72-51,4.2-16.71,9.1-33.21,16.8-48.4,8-15.68,17.6-29.89,29.58-42,10.61-10.76,22-20.26,34.72-27.68,6.3-3.69,12.84-6.89,19.34-10.13,10.81-5.38,22.1-9.24,33.43-13,22.19-7.34,44.8-12.38,67.65-16.22a495.12,495.12,0,0,1,80.94-6.75,290.58,290.58,0,0,1,73.33,9.36A208.6,208.6,0,0,1,587,115.57c16.44,6.92,32.16,15.65,48.27,23.39q17.47,8.39,34.87,17c11.12,5.49,22.19,11.1,33.29,16.65l58,29q12.6,6.3,25.18,12.66c18,9.13,36,18.36,54.11,27.41,18.39,9.2,36.76,18.44,55.29,27.27,13.59,6.47,26.76,13.95,40.31,20.5,6.86,3.32,13.66,6.76,20.45,10.24,13.89,7.12,27.73,14.38,41.66,21.42,6.64,3.36,13.36,6.54,19.79,10.4a38.7,38.7,0,0,1,6.49,4.84c4.12,3.8,2.81,11.17-1.76,14.47a4.21,4.21,0,0,1-4,.29c-2-.71-4-1.42-5.89-2.32-7.52-3.56-15.14-6.79-22.84-9.83-10.48-4.12-20.73-8.93-31.12-13.34-8-3.37-16.05-6.33-23.94-9.88-11.6-5.21-23.44-9.7-35.08-14.82-18.73-8.25-37.75-15.7-56.61-23.6-11.38-4.77-22.66-9.81-34-14.61-12.83-5.43-25.69-10.73-38.54-16.08-14-5.82-28-11.56-42-17.45-10.72-4.52-21.44-9-32-13.87s-21.58-8.64-32.17-13.48-21.44-9-32-13.94a139.59,139.59,0,0,0-19.76-7.29c-14.21-4.11-26.77.35-37.88,10.57-7.68,7.08-12.7,16.43-17.14,26.22a120.89,120.89,0,0,0-6.47,18.5c-7.14,26.73-13,53.82-17.83,81.19-1.66,9.37-3.71,18.66-5.26,28.05q-3.74,22.72-7,45.54c-2.95,20.61-5.87,41.22-8.46,61.88-2.72,21.63-5.44,43.27-7,65.06s-3.31,43.54-4.26,65.37c-.45,10.52-.51,21.06-1,31.58a158.22,158.22,0,0,1-1.48,16.29C496.25,650,489.3,667,477.27,681a63.32,63.32,0,0,1-23.35,17.08c-14.43,6.27-29.23,7.87-44.52,6.11-12.43-1.44-24.91-2.29-37.35-3.67-13.3-1.47-26.57-3.21-39.85-4.89-14.31-1.81-28.63-3.58-42.93-5.54-13.78-1.88-27.54-4-41.32-6-5.67-.82-11.4-1.32-17-2.38-7.88-1.49-15.82-2.37-23.72-3.64-6.52-1.06-13-2.72-19.44-4.13a16.43,16.43,0,0,0-2-.48,1.14,1.14,0,0,0-1.3,1.35c.3,2.31.68,4.61,1.16,6.88,2.93,13.93,7,27.39,14,39.44,4.8,8.18,10.26,15.73,17.49,21.43a43.2,43.2,0,0,0,17,8.53q30.33,7.14,60.84,13.17c7.18,1.44,14.3,3.22,21.47,4.73,10.74,2.26,21.51,4.38,32.27,6.61,14.5,3,29,6.17,43.52,9,11.45,2.25,22.83,5,34.4,6.35,3.8.45,7.61.85,11.42.92a239.29,239.29,0,0,0,50.3-4.1,171.28,171.28,0,0,0,39.1-12c4-1.83,8.22-3.12,12.31-4.72,6.57-2.58,12.94-5.56,18.61-10.24a49.36,49.36,0,0,0,8.93-9.74,210.29,210.29,0,0,0,11.33-18.22,109.79,109.79,0,0,1,8.7-13.13c5.69-7.36,12.41-13,20.85-15.78,21.46-7.15,102.72-33.86,121.7-40.8,8.58-3.14,17.26-5.9,25.9-8.81,15.78-5.32,31.55-10.68,47.35-15.92,8.15-2.7,16.24-5.61,24.5-7.91,6.39-1.77,12.61-4.32,18.91-6.49,6.13-2.11,12.29-4.14,18.42-6.24,8.79-3,17.55-6.16,26.37-9.08,6-2,12.08-3.59,18.08-5.53,10.67-3.45,21.31-7,32-10.54l39.45-13c8.49-2.81,17-5.59,25.46-8.47,3.65-1.24,7.23-2.72,10.84-4.09a18,18,0,0,1,2.47-.92c3.56-.81,6.7,1.19,7.64,5.12a26.34,26.34,0,0,1-3.57,21.08,12.08,12.08,0,0,1-5.41,4.42q-8,3.6-16,7.08c-11.65,5.07-23.3,10.14-35,15.12-6,2.56-12.06,4.91-18.08,7.4q-16.36,6.74-32.73,13.53c-12,5-24.11,9.94-36.14,15-14.63,6.13-29.17,12.52-43.86,18.45-17,6.86-33.71,14.48-50.5,21.9-6.46,2.85-13.06,5.27-19.54,8.07-12.95,5.6-25.85,11.35-38.79,17-9.55,4.16-19.12,8.23-28.67,12.36-15.71,6.79-31.43,13.55-47.12,20.4-8.41,3.67-16.76,7.53-25.15,11.25q-19.86,8.81-39.73,17.55c-8.73,3.83-17.47,7.61-26.21,11.43-3.72,1.62-7.44,3.25-11.14,4.93-9,4.09-17.93,8.41-27,12.25-6,2.53-12.21,4.45-18.35,6.52-24.63,8.29-49.88,9.33-75.3,7.82-12.49-.74-24.78-3.41-37-6.23-6.12-1.4-12.26-2.73-18.39-4.08-6.63-1.45-13.26-2.92-19.9-4.33-8.87-1.88-17.8-3.41-26.58-5.69a16.86,16.86,0,0,0-12.56,1.19c-6.19,3.16-12.73,5.13-19.19,7.39-8.95,3.12-17.87,6.34-26.81,9.51-14.4,5.1-28.81,10.13-43.18,15.33C220,839.8,214.85,842.1,209.6,844.25ZM319,474.21v.09q31.75.57,63.51,1.12c8.85.16,17.7.24,26.54.42a21.62,21.62,0,0,0,14.6-5.23,43.41,43.41,0,0,0,15.92-29.06c1.78-14.09,4.06-28.08,6.4-42.06,2.14-12.83,4.62-25.6,6.78-38.43,1.85-10.91,3.38-21.89,5.2-32.81,2.68-16.09,5.49-32.15,8.26-48.22,2.18-12.63,4.5-25.23,6.53-37.89,1.75-11-1.18-20.5-8.2-28.26-3.84-4.25-8.58-6.58-14.13-6.22-1.9.12-3.81.29-5.7.55-4.13.58-8.25,1.28-12.38,1.85q-30.74,4.22-61.48,8.37c-9.47,1.29-19,2.46-28.42,3.83-15.14,2.19-30.26,4.54-45.39,6.73-11,1.6-22,3.16-33.06,4.56-8.73,1.1-15.3,5.77-19.79,14.24a46.08,46.08,0,0,0-4.51,13c-1.41,7.43-2.71,14.89-4.07,22.34-1.85,10.12-3.66,20.24-5.57,30.35-1.52,8-3.25,16-4.73,24-2,11.07-3.86,22.19-5.86,33.27q-5.91,32.67-11.91,65.31c-1.85,10.12-.22,19.4,5.34,27.66,3.49,5.18,7.95,8.66,14,8.85,2.25.07,4.51.29,6.76.33Q276.34,473.58,319,474.21ZM428.14,601.9a45.28,45.28,0,0,0-7.05-24.78,25.9,25.9,0,0,0-7.92-8.23c-13.46-8.65-23.65-2.54-30.19,6.14-4.78,6.35-7,13.85-7.43,22-.88,14.88,3.6,27.11,14.54,36,5.56,4.5,11.7,5.72,18.24,3.23A24.73,24.73,0,0,0,420.14,627C425.23,619.6,428.31,611.26,428.14,601.9Zm-199.3-13.61c-.58-10.44-3.91-20.37-12.06-27.66-5.33-4.78-11.24-5.67-17.53-2.43a24.65,24.65,0,0,0-9.58,8.71c-8.51,13.15-8.62,33.19,4.11,47.49,5.17,5.81,13.62,9.14,22.88,2.48a23.47,23.47,0,0,0,6.08-6.28C226.88,604.25,228.5,597,228.84,588.29Z" transform="translate(-57.53 -96.09)"/><path class="cls-1" d="M700.68,406.6V534.77c0,7.51-.69,7.48,6.59,6.41,12.72-1.88,25.43-4,38.15-5.85,17.37-2.59,34.76-5,52.12-7.61,14.45-2.15,28.88-4.45,43.33-6.62,8.09-1.21,16.2-2.2,24.28-3.44,14.61-2.25,29.32-3.55,43.91-6.07,8.74-1.51,17.56-2.46,26.35-3.65,11.54-1.56,23.08-3.2,34.63-4.62,5.87-.72,11.72-1.43,17.54-2.54,3.41-.64,6,1.59,6.77,5.48.91,4.68-1.9,10-6,10.63-6.18,1-12.32,2.33-18.48,3.48-10.09,1.9-20.21,3.63-30.29,5.67-14.34,2.89-28.69,5.72-43.1,8.2-7,1.21-14,2.76-21,4.24-12.27,2.61-24.48,5.54-36.84,7.63-10.81,1.82-21.61,3.72-32.38,5.81-10.59,2.05-21.14,4.44-31.72,6.58-8.88,1.8-17.78,3.46-26.67,5.16L715,569.91c-3.75.72-7.52,1.41-11.28,2.12-2.82.54-3.13.83-3.14,4.18,0,9.95-.05,19.9.07,29.84a55.45,55.45,0,0,1-3.82,20.44,36.41,36.41,0,0,1-9,13.4,18.27,18.27,0,0,1-7.34,4.29c-8.68,2.74-17.37,5.46-26,8.27-5.49,1.78-11,3.75-16.43,5.58-2.16.73-4.38,1.25-6.53,2-4.63,1.61-9,.73-13-2-7.24-4.87-11.61-12.12-13.54-21.26a55.11,55.11,0,0,1-1-11.63c0-9.17,0-18.33-.06-27.5,0-1.37,0-2.73-.1-4.09-.06-1.15-.7-1.74-1.69-1.71a14.08,14.08,0,0,0-2.59.3c-13.8,3-27.62,5.83-41.39,9-10,2.29-20,4.67-29.89,7.9-3,1-5.73.74-8.22-1.81a8.47,8.47,0,0,1-2-9,23.35,23.35,0,0,1,3.68-7c5.41-7.48,11.55-14,19.24-18.51s15.45-7.81,24-9.15c11.86-1.84,23.66-4.13,35.49-6.23.68-.12,1.38-.18,2.06-.35a2,2,0,0,0,1.53-2c.08-1.36.1-2.72.1-4.09q0-91.29-.1-182.59-.06-57.65-.21-115.3a60.31,60.31,0,0,1,.79-12.21,30.11,30.11,0,0,1,12.07-19A12.46,12.46,0,0,1,629.11,220c8.56,3.22,16.9,7.09,25.34,10.68,7.78,3.32,15.64,6.44,23.49,9.57a32.61,32.61,0,0,1,17,14.77,45.09,45.09,0,0,1,5.61,20.45c.16,3.89.15,7.8.15,11.7q0,59.7,0,119.39Zm-75.95-4.38h.06q0,72.54,0,145.07c0,6.5.17,6.05,5,5.29,2.4-.37,4.85-.44,7.25-.81,10-1.5,19.92-3.07,29.88-4.62,4-.61,7.91-1.21,11.85-1.9,1.66-.29,2-.83,2.1-2.73.07-1.36,0-2.73,0-4.1-.14-23.78-.36-47.57-.39-71.35,0-25.54.22-51.08.22-76.62,0-29.06-.14-58.11-.21-87.16,0-7,0-14,0-21.05,0-2.15-.08-4.29-.26-6.43a10.76,10.76,0,0,0-5.27-8.84,31.48,31.48,0,0,0-5.77-2.62c-10.29-3.52-20.49-7.34-30.54-11.65-2.59-1.11-5.17-2.26-7.81-3.21-3.34-1.2-5.42.26-5.93,4.17a41.7,41.7,0,0,0-.13,5.25Q624.72,330.57,624.73,402.22Zm56.09,191.24h-.16c0-4.48.05-9,0-13.44,0-3.23-.56-3.68-3.51-3.17-1.89.32-3.74.83-5.62,1.19l-43.58,8.26c-3,.56-3.18.81-3.22,4.1-.12,8.18-.16,16.36-.23,24.55,0,2.53-.07,5.07,0,7.6a10.52,10.52,0,0,0,3,7.2,3.91,3.91,0,0,0,4.27,1.38c1.83-.57,3.62-1.37,5.47-1.85,11.65-3,23-7.57,34.81-9.64,4-.7,6.47-3.46,7.84-7.62a19.21,19.21,0,0,0,1-6.28C680.77,601.65,680.82,597.55,680.82,593.46Z" transform="translate(-57.53 -96.09)"/></svg>